<svg width="1000" height="1000" xmlns="http://www.w3.org/2000/svg">

    <g>
        <title>Layer 1</title>
        <g>
            <g>
                <g>
                    <g>
                        <path fill="#ffbc5e"
                            d="m288,348l60,0l0,12l-16,0l0,8l40,0l0,-8l-16,0l0,-12l64,0c2.211,0 4,-1.789 4,-4l0,-84c0,-2.211 -1.789,-4 -4,-4l-132,0c-2.211,0 -4,1.789 -4,4l0,84c0,2.211 1.789,4 4,4zm4,-84l124,0l0,76l-60,0l-8,0l-56,0l0,-76z" />
                        <rect fill="#ffbc5e" height="8" width="40" y="240" x="448" />
                        <path fill="#ffbc5e"
                            d="m476,288c-6.617,0 -12,5.383 -12,12s5.383,12 12,12s12,-5.383 12,-12s-5.383,-12 -12,-12zm0,16c-2.207,0 -4,-1.793 -4,-4c0,-2.207 1.793,-4 4,-4c2.207,0 4,1.793 4,4c0,2.207 -1.793,4 -4,4z" />
                        <path fill="#ffbc5e"
                            d="m329.172,273.172l-24,24c-1.562,1.562 -1.562,4.094 0,5.656c0.781,0.781 1.804,1.172 2.828,1.172s2.047,-0.391 2.828,-1.172l24,-24c1.562,-1.562 1.562,-4.094 0,-5.656c-1.562,-1.563 -4.094,-1.563 -5.656,0z" />
                        <path fill="#ffbc5e"
                            d="m504,372l0,-148c0,-2.211 -1.789,-4 -4,-4l-64,0c-2.211,0 -4,1.789 -4,4l0,148l-152,0l0,8l156,0l64,0l20,0l0,-8l-16,0zm-8,0l-56,0l0,-144l56,0l0,144z" />
                    </g>
                </g>
            </g>
            <g />
            <g />
            <g />
            <g />
            <g />
            <g />
            <g />
            <g />
            <g />
            <g />
            <g />
            <g />
            <g />
            <g />
            <g />
        </g>
    </g>
</svg>