<?xml version="1.0" encoding="UTF-8" standalone="no" ?>
<!DOCTYPE svg PUBLIC "-//W3C//DTD SVG 1.1//EN" "http://www.w3.org/Graphics/SVG/1.1/DTD/svg11.dtd">
<svg xmlns="http://www.w3.org/2000/svg" xmlns:xlink="http://www.w3.org/1999/xlink" version="1.1" width="1080" height="1080" viewBox="0 0 1080 1080" xml:space="preserve">
<desc>Created with Fabric.js 5.2.4</desc>
<defs>
</defs>
<g transform="matrix(1 0 0 1 540 540)" id="54202ccb-eed7-4cd6-ac8f-1432a54a0d36"  >
<rect style="stroke: none; stroke-width: 1; stroke-dasharray: none; stroke-linecap: butt; stroke-dashoffset: 0; stroke-linejoin: miter; stroke-miterlimit: 4; fill: rgb(255,255,255); fill-rule: nonzero; opacity: 1; visibility: hidden;" vector-effect="non-scaling-stroke"  x="-540" y="-540" rx="0" ry="0" width="1080" height="1080" />
</g>
<g transform="matrix(1 0 0 1 540 540)" id="3bfed94a-b748-43ae-b3d9-4df45f09ae16"  >
</g>
<g transform="matrix(1 0 0 1 540 540)"  >
<g style="" vector-effect="non-scaling-stroke"   >
		<g transform="matrix(1 0 0 1 0 0)"  >
<path style="stroke: rgb(255,188,94); stroke-width: 1; stroke-dasharray: none; stroke-linecap: butt; stroke-dashoffset: 0; stroke-linejoin: miter; stroke-miterlimit: 4; fill: rgb(0,0,0); fill-rule: nonzero; opacity: 1;" vector-effect="non-scaling-stroke"  transform=" translate(-400, -300)" d="M 413 308.00027 L 413 290.44027 C 412.9947942058783 290.0495033200511 412.8331451511517 289.6771352833882 412.5512260091844 289.4064929070996 C 412.26930686721704 289.13585053081096 411.8906537051213 288.9895284393244 411.5 289.00027 L 388.5 289.00027 C 388.1093462948787 288.9895284393244 387.73069313278296 289.13585053081096 387.4487739908156 289.4064929070996 C 387.1668548488483 289.6771352833882 387.0052057941217 290.0495033200511 387 290.44027 L 387 308.00027 L 384 308.00027 L 384 308.44027 C 383.99426997386496 309.8331864460677 385.10733933068815 310.9729694674546 386.5 311.00027 L 413.5 311.00027 C 414.89266066931185 310.9729694674546 416.00573002613504 309.8331864460677 416 308.44027 L 416 308.00027 L 413 308.00027 z M 388 290.44027 C 388.0049862729934 290.3145212106306 388.0612744557937 290.19630612088946 388.1557499577037 290.1131676792087 C 388.2502254596136 290.03002923752797 388.3746377522106 289.9892279089194 388.5 290.00027 L 411.5 290.00027 C 411.6253622477894 289.9892279089194 411.7497745403864 290.03002923752797 411.8442500422963 290.1131676792087 C 411.9387255442063 290.19630612088946 411.9950137270066 290.3145212106306 412 290.44027 L 412 308.00027 L 388 308.00027 L 388 290.44027 z M 386.5 310.00027 C 385.8773976007558 309.9641231075 385.3299945341666 309.57589398225946 385.09 309.00027 L 398 309.00027 L 398 310.00027 L 386.5 310.00027 z M 413.5 310.00027 L 402 310.00027 L 402 309.00027 L 414.91 309.00027 C 414.6700054658334 309.57589398225946 414.1226023992442 309.9641231075 413.5 310.00027 z" stroke-linecap="round" />
</g>
		<g transform="matrix(1 0 0 1 0 -1)"  >
<path style="stroke: rgb(255,188,94); stroke-width: 1; stroke-dasharray: none; stroke-linecap: butt; stroke-dashoffset: 0; stroke-linejoin: miter; stroke-miterlimit: 4; fill: rgb(0,0,0); fill-rule: nonzero; opacity: 1;" vector-effect="non-scaling-stroke"  transform=" translate(-400, -299)" d="M 389 307.00027 L 411 307.00027 L 411 291.00027 L 389 291.00027 L 389 307.00027 z M 390 292.00027 L 410 292.00027 L 410 306.00027 L 390 306.00027 L 390 292.00027 z" stroke-linecap="round" />
</g>
</g>
</g>
</svg>