<svg width="800" height="600" xmlns="http://www.w3.org/2000/svg">

 <g>
  <title>Layer 1</title>
  <g>
   <title stroke="#ffbc5e"/>
   <path stroke="#ffbc5e" d="m413,308.00027l0,-17.56a1.46,1.46 0 0 0 -1.5,-1.44l-23,0a1.46,1.46 0 0 0 -1.5,1.44l0,17.56l-3,0l0,0.44a2.55,2.55 0 0 0 2.5,2.56l27,0a2.55,2.55 0 0 0 2.5,-2.56l0,-0.44l-3,0zm-25,-17.56a0.46,0.46 0 0 1 0.5,-0.44l23,0a0.46,0.46 0 0 1 0.5,0.44l0,17.56l-24,0l0,-17.56zm-1.5,19.56a1.63,1.63 0 0 1 -1.41,-1l12.91,0l0,1l-11.5,0zm27,0l-11.5,0l0,-1l12.91,0a1.63,1.63 0 0 1 -1.41,1z"/>
   <path stroke="#ffbc5e" d="m389,307.00027l22,0l0,-16l-22,0l0,16zm1,-15l20,0l0,14l-20,0l0,-14z"/>
  </g>
 </g>
</svg>